<svg xmlns="http://www.w3.org/2000/svg" viewBox="0 0 512 512">
  <defs>
    <radialGradient id="sky" cx="50%" cy="30%" r="80%">
      <stop offset="0" stop-color="#2b4d7a"/>
      <stop offset="0.55" stop-color="#101a36"/>
      <stop offset="1" stop-color="#05070f"/>
    </radialGradient>
    <radialGradient id="glow" cx="50%" cy="50%" r="50%">
      <stop offset="0" stop-color="#bfffe9" stop-opacity="0.9"/>
      <stop offset="1" stop-color="#bfffe9" stop-opacity="0"/>
    </radialGradient>
    <linearGradient id="leaf" x1="0" y1="0" x2="0" y2="1">
      <stop offset="0" stop-color="#b6f5c9"/>
      <stop offset="1" stop-color="#3bbf8d"/>
    </linearGradient>
  </defs>
  <rect width="512" height="512" rx="112" fill="url(#sky)"/>
  <circle cx="256" cy="228" r="170" fill="url(#glow)" opacity="0.35"/>
  <path d="M40 400 C 150 350, 230 380, 300 360 S 430 350, 472 372 L 472 512 L 40 512 Z" fill="#0d2a24"/>
  <path d="M256 396 V 250" stroke="#6b4a2c" stroke-width="20" stroke-linecap="round"/>
  <path d="M256 272 C 256 196, 310 150, 396 146 C 396 236, 336 280, 256 272 Z" fill="url(#leaf)"/>
  <path d="M256 300 C 256 238, 212 200, 132 196 C 132 270, 182 306, 256 300 Z" fill="url(#leaf)" opacity="0.85"/>
  <circle cx="370" cy="110" r="10" fill="#ffe7a3"/>
  <circle cx="150" cy="130" r="5" fill="#cfe0ff"/>
  <circle cx="200" cy="80" r="4" fill="#cfe0ff"/>
</svg>
